{
  "source": "C:\\Users\\Peter\\Desktop\\stuff\\MIUN\\quantitative_research\\video_compression\\videos\\UVG\\Jockey_1920x1080_120fps_420_8bit_YUV.y4m",
  "output": "C:\\Users\\Peter\\Desktop\\stuff\\MIUN\\quantitative_research\\video_compression\\compressed_videos\\UVG\\h264\\2.5\\Jockey_1920x1080_120fps_420_8bit_YUV_h264.mp4",
  "codec": "h264",
  "ok": "[yuv4mpegpipe @ 000001d22ca25e40] Stream #0: not enough frames to estimate rate; consider increasing probesize\nInput #0, yuv4mpegpipe, from 'C:\\Users\\Peter\\Desktop\\stuff\\MIUN\\quantitative_research\\video_compression\\videos\\UVG\\Jockey_1920x1080_120fps_420_8bit_YUV.y4m':\n  Duration: 00:00:05.00, start: 0.000000, bitrate: 2985989 kb/s\n  Stream #0:0: Video: rawvideo (I420 / 0x30323449), yuv420p(progressive), 1920x1080, 120 fps, 120 tbr, 120 tbn\n[out#0/mp4 @ 000001d22ca2a640] Codec AVOption b:a (set bitrate (in bits/s)) has not been used for any stream. The most likely reason is either wrong type (e.g. a video option with no video streams) or that it is a private option of some decoder which was not actually used for any stream.\nStream mapping:\n  Stream #0:0 -> #0:0 (rawvideo (native) -> h264 (libx264))\nPress [q] to stop, [?] for help\n[libx264 @ 000001d22ca2cac0] using cpu capabilities: MMX2 SSE2Fast SSSE3 SSE4.2 AVX FMA3 BMI2 AVX2\n[libx264 @ 000001d22ca2cac0] profile High, level 5.1, 4:2:0, 8-bit\n[libx264 @ 000001d22ca2cac0] 264 - core 165 r3222 b35605a - H.264/MPEG-4 AVC codec - Copyleft 2003-2025 - http://www.videolan.org/x264.html - options: cabac=1 ref=5 deblock=1:0:0 analyse=0x3:0x113 me=hex subme=8 psy=1 psy_rd=1.00:0.00 mixed_ref=1 me_range=16 chroma_me=1 trellis=2 8x8dct=1 cqm=0 deadzone=21,11 fast_pskip=1 chroma_qp_offset=-2 threads=18 lookahead_threads=3 sliced_threads=0 nr=0 decimate=1 interlaced=0 bluray_compat=0 constrained_intra=0 bframes=3 b_pyramid=2 b_adapt=1 b_bias=0 direct=3 weightb=1 open_gop=0 weightp=2 keyint=250 keyint_min=25 scenecut=40 intra_refresh=0 rc_lookahead=50 rc=cbr mbtree=1 bitrate=2500 ratetol=1.0 qcomp=0.60 qpmin=0 qpmax=69 qpstep=4 vbv_maxrate=2500 vbv_bufsize=2500 nal_hrd=none filler=0 ip_ratio=1.40 aq=1:1.00\nOutput #0, mp4, to 'C:\\Users\\Peter\\Desktop\\stuff\\MIUN\\quantitative_research\\video_compression\\compressed_videos\\UVG\\h264\\2.5\\Jockey_1920x1080_120fps_420_8bit_YUV_h264.mp4':\n  Metadata:\n    encoder         : Lavf62.3.100\n  Stream #0:0: Video: h264 (avc1 / 0x31637661), yuv420p(tv, progressive), 1920x1080, q=2-31, 2500 kb/s, 120 fps, 15360 tbn\n    Metadata:\n      encoder         : Lavc62.11.100 libx264\n    Side data:\n      cpb: bitrate max/min/avg: 2500000/0/2500000 buffer size: 2500000 vbv_delay: N/A\nframe=    0 fps=0.0 q=0.0 size=       0KiB time=N/A bitrate=N/A speed=N/A elapsed=0:00:00.52    \nframe=    0 fps=0.0 q=0.0 size=       0KiB time=N/A bitrate=N/A speed=N/A elapsed=0:00:01.07    \nframe=   22 fps= 14 q=44.0 size=       0KiB time=00:00:00.16 bitrate=   2.3kbits/s speed=0.104x elapsed=0:00:01.60    \nframe=   51 fps= 24 q=43.0 size=       0KiB time=00:00:00.40 bitrate=   0.9kbits/s speed=0.19x elapsed=0:00:02.14    \nframe=   81 fps= 30 q=43.0 size=       0KiB time=00:00:00.65 bitrate=   0.6kbits/s speed=0.243x elapsed=0:00:02.71    \nframe=  110 fps= 34 q=43.0 size=       0KiB time=00:00:00.90 bitrate=   0.4kbits/s speed=0.276x elapsed=0:00:03.25    \nframe=  139 fps= 37 q=43.0 size=     256KiB time=00:00:01.14 bitrate=1837.3kbits/s speed=0.302x elapsed=0:00:03.77    \nframe=  165 fps= 38 q=44.0 size=     256KiB time=00:00:01.35 bitrate=1544.2kbits/s speed=0.316x elapsed=0:00:04.30    \nframe=  191 fps= 39 q=45.0 size=     256KiB time=00:00:01.57 bitrate=1331.8kbits/s speed=0.324x elapsed=0:00:04.85    \nframe=  217 fps= 40 q=45.0 size=     512KiB time=00:00:01.79 bitrate=2341.2kbits/s speed=0.332x elapsed=0:00:05.39    \nframe=  225 fps= 38 q=45.0 size=     512KiB time=00:00:01.85 bitrate=2257.2kbits/s speed=0.313x elapsed=0:00:05.93    \nframe=  232 fps= 36 q=45.0 size=     512KiB time=00:00:01.91 bitrate=2188.5kbits/s speed=0.296x elapsed=0:00:06.47    \nframe=  260 fps= 37 q=45.0 size=     512KiB time=00:00:02.15 bitrate=1951.0kbits/s speed=0.307x elapsed=0:00:07.01    \nframe=  288 fps= 38 q=48.0 size=     768KiB time=00:00:02.35 bitrate=2677.4kbits/s speed=0.312x elapsed=0:00:07.54    \nframe=  314 fps= 39 q=54.0 size=     768KiB time=00:00:02.60 bitrate=2419.9kbits/s speed=0.321x elapsed=0:00:08.10    \nframe=  341 fps= 39 q=55.0 size=     768KiB time=00:00:02.82 bitrate=2227.2kbits/s speed=0.325x elapsed=0:00:08.68    \nframe=  372 fps= 40 q=52.0 size=    1024KiB time=00:00:03.07 bitrate=2728.1kbits/s speed=0.334x elapsed=0:00:09.21    \nframe=  397 fps= 41 q=49.0 size=    1024KiB time=00:00:03.29 bitrate=2548.6kbits/s speed=0.337x elapsed=0:00:09.76    \nframe=  399 fps= 39 q=49.0 size=    1024KiB time=00:00:03.30 bitrate=2535.7kbits/s speed=0.322x elapsed=0:00:10.28    \nframe=  423 fps= 39 q=49.0 size=    1024KiB time=00:00:03.50 bitrate=2391.2kbits/s speed=0.323x elapsed=0:00:10.85    \nframe=  429 fps= 38 q=49.0 size=    1024KiB time=00:00:03.55 bitrate=2357.6kbits/s speed=0.312x elapsed=0:00:11.40    \nframe=  437 fps= 37 q=49.0 size=    1024KiB time=00:00:03.62 bitrate=2314.2kbits/s speed=0.303x elapsed=0:00:11.94    \nframe=  449 fps= 36 q=48.0 size=    1024KiB time=00:00:03.72 bitrate=2252.1kbits/s speed=0.298x elapsed=0:00:12.48    \nframe=  461 fps= 35 q=47.0 size=    1024KiB time=00:00:03.81 bitrate=2198.0kbits/s speed=0.293x elapsed=0:00:13.00    \nframe=  473 fps= 35 q=46.0 size=    1024KiB time=00:00:03.92 bitrate=2137.3kbits/s speed=0.29x elapsed=0:00:13.54    \nframe=  485 fps= 34 q=46.0 size=    1024KiB time=00:00:04.02 bitrate=2084.2kbits/s speed=0.286x elapsed=0:00:14.06    \nframe=  498 fps= 34 q=45.0 size=    1024KiB time=00:00:04.13 bitrate=2029.6kbits/s speed=0.283x elapsed=0:00:14.58    \nframe=  513 fps= 34 q=45.0 size=    1280KiB time=00:00:04.25 bitrate=2462.5kbits/s speed=0.281x elapsed=0:00:15.13    \nframe=  552 fps= 35 q=44.0 size=    1280KiB time=00:00:04.56 bitrate=2296.2kbits/s speed=0.291x elapsed=0:00:15.70    \n[mp4 @ 000001d22ca2b780] Starting second pass: moving the moov atom to the beginning of the file\n[out#0/mp4 @ 000001d22ca2a640] video:1470KiB audio:0KiB subtitle:0KiB other streams:0KiB global headers:0KiB muxing overhead: 0.478197%\nframe=  600 fps= 37 q=-1.0 Lsize=    1477KiB time=00:00:04.98 bitrate=2428.3kbits/s speed=0.308x elapsed=0:00:16.19    \n[libx264 @ 000001d22ca2cac0] frame I:7     Avg QP:43.64  size:  7654\n[libx264 @ 000001d22ca2cac0] frame P:230   Avg QP:44.36  size:  3283\n[libx264 @ 000001d22ca2cac0] frame B:363   Avg QP:46.83  size:  1918\n[libx264 @ 000001d22ca2cac0] consecutive B-frames: 16.2%  5.7% 11.5% 66.7%\n[libx264 @ 000001d22ca2cac0] mb I  I16..4: 37.8% 61.9%  0.3%\n[libx264 @ 000001d22ca2cac0] mb P  I16..4:  7.4%  5.5%  0.0%  P16..4: 12.8%  0.4%  0.5%  0.0%  0.0%    skip:73.4%\n[libx264 @ 000001d22ca2cac0] mb B  I16..4:  0.4%  0.3%  0.0%  B16..8: 20.7%  0.3%  0.0%  direct: 0.7%  skip:77.7%  L0:37.0% L1:62.8% BI: 0.2%\n[libx264 @ 000001d22ca2cac0] 8x8 transform intra:45.6% inter:96.0%\n[libx264 @ 000001d22ca2cac0] direct mvs  spatial:97.5% temporal:2.5%\n[libx264 @ 000001d22ca2cac0] coded y,uvDC,uvAC intra: 1.9% 20.0% 0.7% inter: 0.2% 2.1% 0.0%\n[libx264 @ 000001d22ca2cac0] i16 v,h,dc,p: 36% 41%  4% 19%\n[libx264 @ 000001d22ca2cac0] i8 v,h,dc,ddl,ddr,vr,hd,vl,hu: 13% 13% 67%  1%  2%  2%  2%  1%  1%\n[libx264 @ 000001d22ca2cac0] i4 v,h,dc,ddl,ddr,vr,hd,vl,hu: 20% 12% 25%  9% 10%  8%  6%  4%  6%\n[libx264 @ 000001d22ca2cac0] i8c dc,h,v,p: 82% 14%  3%  1%\n[libx264 @ 000001d22ca2cac0] Weighted P-Frames: Y:0.0% UV:0.0%\n[libx264 @ 000001d22ca2cac0] ref P L0: 52.0%  5.9% 22.0%  8.5%  8.7%  2.9%\n[libx264 @ 000001d22ca2cac0] ref B L0: 78.3% 13.9%  6.1%  1.7%\n[libx264 @ 000001d22ca2cac0] ref B L1: 94.3%  5.7%\n[libx264 @ 000001d22ca2cac0] kb/s:2407.49\n",
  "seconds": 16.38187885284424,
  "probe_out": {}
}